<svg xmlns="http://www.w3.org/2000/svg" xmlns:xlink="http://www.w3.org/1999/xlink" width="50" zoomAndPan="magnify" viewBox="0 0 37.5 37.499999" height="50" preserveAspectRatio="xMidYMid meet" version="1.0"><defs><clipPath id="id1"><path d="M 7 2 L 30 2 L 30 37.007812 L 7 37.007812 Z M 7 2 " clip-rule="nonzero"/></clipPath><clipPath id="id2"><path d="M 6.914062 0 L 10 0 L 10 13 L 6.914062 13 Z M 6.914062 0 " clip-rule="nonzero"/></clipPath><clipPath id="id3"><path d="M 28 0 L 30.914062 0 L 30.914062 13 L 28 13 Z M 28 0 " clip-rule="nonzero"/></clipPath><clipPath id="id4"><path d="M 0 14.917969 L 9.75 14.917969 L 9.75 22.417969 L 0 22.417969 Z M 0 14.917969 " clip-rule="nonzero"/></clipPath><clipPath id="id5"><path d="M 9 19 L 9.75 19 L 9.75 22 L 9 22 Z M 9 19 " clip-rule="nonzero"/></clipPath><clipPath id="id6"><path d="M 30.292969 13.609375 L 37.007812 13.609375 L 37.007812 24 L 30.292969 24 Z M 30.292969 13.609375 " clip-rule="nonzero"/></clipPath><clipPath id="id7"><path d="M 27 14.917969 L 33.585938 14.917969 L 33.585938 25.417969 L 27 25.417969 Z M 27 14.917969 " clip-rule="nonzero"/></clipPath></defs><g clip-path="url(#id1)"><path fill="#000000" d="M 9.105469 37.414062 C 9.28125 37.464844 9.460938 37.492188 9.640625 37.492188 C 10.425781 37.492188 11.113281 36.992188 11.347656 36.25 L 11.90625 34.488281 L 18.90625 26.238281 L 25.917969 34.496094 C 25.917969 34.496094 25.917969 34.5 25.921875 34.5 L 26.472656 36.25 C 26.707031 36.992188 27.394531 37.492188 28.183594 37.492188 C 28.363281 37.492188 28.542969 37.464844 28.714844 37.414062 C 29.660156 37.125 30.1875 36.132812 29.894531 35.203125 L 21.300781 7.988281 C 21.398438 7.875 21.488281 7.753906 21.570312 7.625 C 21.882812 7.132812 22.050781 6.566406 22.050781 5.980469 C 22.050781 5.496094 21.9375 5.027344 21.71875 4.59375 C 21.179688 3.539062 20.105469 2.882812 18.910156 2.882812 C 17.746094 2.882812 16.683594 3.515625 16.136719 4.53125 C 15.898438 4.976562 15.773438 5.476562 15.773438 5.980469 C 15.773438 6.589844 15.949219 7.175781 16.289062 7.683594 C 16.363281 7.792969 16.4375 7.894531 16.523438 7.988281 L 7.929688 35.203125 C 7.636719 36.132812 8.164062 37.125 9.105469 37.414062 Z M 18.910156 4.199219 C 19.597656 4.199219 20.21875 4.578125 20.527344 5.183594 C 20.652344 5.433594 20.71875 5.699219 20.71875 5.980469 C 20.71875 6.007812 20.714844 6.035156 20.714844 6.0625 C 20.699219 6.367188 20.609375 6.667969 20.441406 6.925781 C 20.253906 7.21875 19.996094 7.445312 19.691406 7.589844 C 19.453125 7.703125 19.1875 7.761719 18.910156 7.761719 C 18.636719 7.761719 18.371094 7.703125 18.132812 7.589844 C 17.839844 7.449219 17.585938 7.234375 17.402344 6.960938 C 17.222656 6.691406 17.121094 6.382812 17.109375 6.0625 C 17.105469 6.035156 17.105469 6.007812 17.105469 5.980469 C 17.105469 5.6875 17.175781 5.40625 17.3125 5.148438 C 17.628906 4.5625 18.242188 4.199219 18.910156 4.199219 Z M 9.28125 35.617188 L 17.734375 8.851562 C 18.101562 8.996094 18.5 9.078125 18.910156 9.078125 C 19.324219 9.078125 19.722656 9 20.089844 8.851562 L 28.542969 35.617188 C 28.601562 35.8125 28.492188 36.019531 28.296875 36.078125 C 28.257812 36.089844 28.21875 36.097656 28.183594 36.097656 C 28.019531 36.097656 27.875 35.992188 27.824219 35.835938 L 27.222656 33.929688 C 27.1875 33.816406 27.121094 33.714844 27.035156 33.632812 C 27.019531 33.617188 27.011719 33.609375 27.003906 33.601562 L 19.449219 24.703125 C 19.316406 24.542969 19.117188 24.453125 18.90625 24.453125 C 18.699219 24.453125 18.5 24.542969 18.367188 24.703125 L 10.8125 33.601562 C 10.804688 33.609375 10.796875 33.617188 10.785156 33.628906 C 10.699219 33.710938 10.636719 33.8125 10.601562 33.921875 L 9.996094 35.835938 C 9.949219 35.992188 9.804688 36.097656 9.640625 36.097656 C 9.601562 36.097656 9.5625 36.089844 9.527344 36.078125 C 9.332031 36.019531 9.21875 35.8125 9.28125 35.617188 " fill-opacity="1" fill-rule="nonzero"/></g><path fill="#000000" d="M 18.523438 22.140625 C 18.621094 22.25 18.761719 22.316406 18.90625 22.316406 C 19.054688 22.316406 19.195312 22.25 19.292969 22.140625 L 22.023438 18.917969 C 22.132812 18.789062 22.167969 18.617188 22.121094 18.457031 L 19.386719 9.808594 C 19.324219 9.601562 19.128906 9.460938 18.910156 9.460938 C 18.691406 9.460938 18.5 9.601562 18.433594 9.808594 L 15.703125 18.460938 C 15.652344 18.621094 15.6875 18.796875 15.796875 18.925781 Z M 18.910156 11.613281 L 21.085938 18.492188 L 18.90625 21.054688 L 16.738281 18.496094 L 18.910156 11.613281 " fill-opacity="1" fill-rule="nonzero"/><path fill="#000000" d="M 12.707031 29.28125 C 12.78125 29.320312 12.863281 29.339844 12.945312 29.339844 C 13.089844 29.339844 13.230469 29.277344 13.328125 29.164062 L 17.878906 23.804688 C 18.035156 23.621094 18.035156 23.355469 17.878906 23.171875 L 15.796875 20.714844 C 15.679688 20.578125 15.492188 20.515625 15.316406 20.550781 C 15.136719 20.585938 14.988281 20.714844 14.933594 20.886719 L 12.46875 28.699219 C 12.398438 28.925781 12.496094 29.167969 12.707031 29.28125 Z M 15.617188 22.042969 L 16.84375 23.488281 L 14.164062 26.644531 Z M 15.617188 22.042969 " fill-opacity="1" fill-rule="nonzero"/><path fill="#000000" d="M 22.023438 20.710938 L 19.9375 23.171875 C 19.78125 23.355469 19.78125 23.621094 19.9375 23.804688 L 24.496094 29.175781 C 24.59375 29.292969 24.738281 29.351562 24.882812 29.351562 C 24.882812 29.351562 24.886719 29.351562 24.890625 29.351562 C 25.164062 29.347656 25.382812 29.128906 25.382812 28.859375 C 25.382812 28.792969 25.371094 28.730469 25.347656 28.675781 L 22.886719 20.882812 C 22.832031 20.707031 22.683594 20.578125 22.507812 20.542969 C 22.328125 20.507812 22.140625 20.574219 22.023438 20.710938 Z M 23.660156 26.65625 L 20.972656 23.488281 L 22.203125 22.035156 Z M 23.660156 26.65625 " fill-opacity="1" fill-rule="nonzero"/><g clip-path="url(#id2)"><path fill="#000000" d="M 9.203125 0.171875 C 8.921875 0.0117188 8.566406 0.109375 8.40625 0.386719 C 7.429688 2.082031 6.914062 4.019531 6.914062 5.980469 C 6.914062 8.023438 7.46875 10.027344 8.523438 11.773438 C 8.632812 11.953125 8.828125 12.054688 9.027344 12.054688 C 9.128906 12.054688 9.230469 12.027344 9.324219 11.972656 C 9.601562 11.8125 9.691406 11.457031 9.527344 11.1875 C 8.578125 9.617188 8.078125 7.816406 8.078125 5.980469 C 8.078125 4.21875 8.542969 2.480469 9.421875 0.953125 C 9.582031 0.679688 9.480469 0.328125 9.203125 0.171875 " fill-opacity="1" fill-rule="nonzero"/></g><path fill="#000000" d="M 11.691406 1.585938 C 11.410156 1.429688 11.054688 1.53125 10.898438 1.804688 C 10.171875 3.074219 9.785156 4.519531 9.785156 5.980469 C 9.785156 7.527344 10.210938 9.039062 11.015625 10.359375 C 11.125 10.539062 11.316406 10.636719 11.515625 10.636719 C 11.617188 10.636719 11.722656 10.609375 11.816406 10.554688 C 12.089844 10.390625 12.179688 10.039062 12.015625 9.765625 C 11.320312 8.625 10.953125 7.316406 10.953125 5.980469 C 10.953125 4.71875 11.285156 3.46875 11.914062 2.371094 C 12.070312 2.09375 11.972656 1.742188 11.691406 1.585938 " fill-opacity="1" fill-rule="nonzero"/><path fill="#000000" d="M 14.160156 2.992188 C 13.878906 2.839844 13.523438 2.9375 13.367188 3.214844 C 12.890625 4.058594 12.640625 5.015625 12.640625 5.980469 C 12.640625 7.03125 12.933594 8.0625 13.488281 8.953125 C 13.601562 9.132812 13.792969 9.230469 13.988281 9.230469 C 14.089844 9.230469 14.195312 9.203125 14.292969 9.144531 C 14.566406 8.976562 14.652344 8.625 14.484375 8.351562 C 14.039062 7.640625 13.804688 6.820312 13.804688 5.980469 C 13.804688 5.210938 14.007812 4.445312 14.386719 3.773438 C 14.542969 3.5 14.441406 3.148438 14.160156 2.992188 " fill-opacity="1" fill-rule="nonzero"/><g clip-path="url(#id3)"><path fill="#000000" d="M 29.441406 0.433594 C 29.285156 0.15625 28.929688 0.0546875 28.648438 0.210938 C 28.367188 0.367188 28.265625 0.71875 28.425781 0.996094 C 29.289062 2.511719 29.746094 4.234375 29.746094 5.980469 C 29.746094 7.800781 29.25 9.585938 28.320312 11.144531 C 28.15625 11.417969 28.25 11.769531 28.527344 11.933594 C 28.621094 11.984375 28.722656 12.011719 28.824219 12.011719 C 29.023438 12.011719 29.214844 11.910156 29.324219 11.730469 C 30.363281 9.992188 30.910156 8.003906 30.910156 5.980469 C 30.910156 4.039062 30.402344 2.117188 29.441406 0.433594 " fill-opacity="1" fill-rule="nonzero"/></g><path fill="#000000" d="M 23.5625 9.105469 C 23.65625 9.160156 23.757812 9.1875 23.859375 9.1875 C 24.058594 9.1875 24.253906 9.085938 24.359375 8.90625 C 24.898438 8.023438 25.183594 7.011719 25.183594 5.980469 C 25.183594 5.03125 24.941406 4.09375 24.484375 3.265625 C 24.328125 2.984375 23.976562 2.882812 23.691406 3.035156 C 23.410156 3.1875 23.304688 3.535156 23.460938 3.8125 C 23.824219 4.472656 24.015625 5.222656 24.015625 5.980469 C 24.015625 6.804688 23.789062 7.613281 23.363281 8.316406 C 23.195312 8.585938 23.285156 8.941406 23.5625 9.105469 " fill-opacity="1" fill-rule="nonzero"/><path fill="#000000" d="M 26.035156 10.511719 C 26.128906 10.566406 26.230469 10.59375 26.332031 10.59375 C 26.53125 10.59375 26.726562 10.492188 26.835938 10.3125 C 27.621094 9.003906 28.035156 7.503906 28.035156 5.980469 C 28.035156 4.539062 27.660156 3.109375 26.953125 1.851562 C 26.796875 1.574219 26.441406 1.476562 26.160156 1.628906 C 25.878906 1.785156 25.777344 2.132812 25.933594 2.410156 C 26.546875 3.5 26.871094 4.734375 26.871094 5.980469 C 26.871094 7.300781 26.511719 8.59375 25.832031 9.726562 C 25.667969 10 25.757812 10.351562 26.035156 10.511719 " fill-opacity="1" fill-rule="nonzero"/><g clip-path="url(#id4)"><path fill="#000000" d="M 9.078125 19.707031 C 9.105469 19.316406 9.179688 17.34375 7.953125 16.042969 C 7.226562 15.277344 6.195312 14.898438 4.886719 14.925781 C 3.582031 14.902344 2.550781 15.277344 1.824219 16.042969 C 0.628906 17.308594 0.667969 19.21875 0.699219 19.675781 C 0.679688 19.738281 0.671875 19.804688 0.671875 19.875 L 0.671875 21.636719 C 0.671875 22.0625 1.023438 22.410156 1.460938 22.410156 L 2.011719 22.410156 C 2.449219 22.410156 2.804688 22.0625 2.804688 21.636719 L 2.804688 19.875 C 2.804688 19.449219 2.449219 19.101562 2.011719 19.101562 L 1.460938 19.101562 C 1.402344 19.101562 1.34375 19.109375 1.289062 19.121094 C 1.320312 18.417969 1.492188 17.246094 2.261719 16.433594 C 2.867188 15.796875 3.75 15.480469 4.882812 15.503906 L 4.894531 15.503906 C 6.027344 15.484375 6.90625 15.796875 7.515625 16.433594 C 8.285156 17.246094 8.457031 18.421875 8.488281 19.125 C 8.429688 19.109375 8.367188 19.101562 8.304688 19.101562 L 7.753906 19.101562 C 7.316406 19.101562 6.960938 19.449219 6.960938 19.875 L 6.960938 21.636719 C 6.960938 22.0625 7.316406 22.410156 7.753906 22.410156 L 8.304688 22.410156 C 8.742188 22.410156 9.09375 22.0625 9.09375 21.636719 L 9.09375 19.875 C 9.09375 19.816406 9.089844 19.761719 9.078125 19.707031 Z M 9.078125 19.707031 " fill-opacity="1" fill-rule="nonzero"/></g><path fill="#000000" d="M 0.476562 19.917969 L 0 20.191406 L 0 21.238281 L 0.476562 21.542969 " fill-opacity="1" fill-rule="nonzero"/><g clip-path="url(#id5)"><path fill="#000000" d="M 9.273438 19.917969 L 9.75 20.191406 L 9.75 21.238281 L 9.273438 21.542969 " fill-opacity="1" fill-rule="nonzero"/></g><g clip-path="url(#id6)"><path fill="#000000" d="M 36.859375 19.695312 C 36.90625 19.644531 36.933594 19.574219 36.933594 19.492188 C 36.925781 17.640625 36.882812 15.792969 36.921875 13.941406 C 36.925781 13.714844 36.695312 13.609375 36.523438 13.699219 C 35.863281 14.039062 35.152344 14.28125 34.46875 14.566406 C 33.824219 14.832031 33.1875 15.105469 32.550781 15.390625 C 32.460938 15.300781 32.285156 15.332031 32.28125 15.503906 C 32.269531 16.570312 32.324219 17.640625 32.398438 18.703125 C 32.460938 19.621094 32.507812 20.570312 32.644531 21.488281 C 31.980469 21.527344 31.230469 21.679688 30.785156 22.195312 C 30.300781 22.757812 30.546875 23.566406 31.199219 23.832031 C 31.875 24.109375 32.753906 23.679688 33.171875 23.105469 C 33.367188 22.832031 33.476562 22.480469 33.34375 22.148438 C 33.316406 22.085938 33.285156 22.023438 33.242188 21.96875 C 33.28125 21.917969 33.300781 21.851562 33.296875 21.789062 C 33.207031 20.742188 33.015625 19.699219 32.902344 18.652344 C 32.855469 18.238281 32.816406 17.824219 32.777344 17.410156 C 33.042969 17.316406 33.292969 17.171875 33.546875 17.054688 C 33.867188 16.90625 34.1875 16.769531 34.515625 16.636719 C 34.816406 16.511719 35.125 16.394531 35.433594 16.285156 C 35.726562 16.183594 36.039062 16.109375 36.328125 15.984375 C 36.304688 16.980469 36.292969 17.980469 36.320312 18.972656 C 35.765625 18.789062 35.144531 18.925781 34.742188 19.433594 C 34.214844 20.097656 34.332031 21.113281 35.167969 21.425781 C 35.914062 21.703125 36.867188 21.1875 37 20.34375 C 37.035156 20.085938 36.976562 19.867188 36.859375 19.695312 Z M 31.304688 22.953125 C 31.304688 22.945312 31.304688 22.9375 31.304688 22.933594 C 31.324219 23.078125 31.382812 23.210938 31.480469 23.3125 C 31.359375 23.273438 31.28125 23.167969 31.304688 22.953125 Z M 32.910156 22.753906 C 32.945312 22.679688 32.976562 22.601562 32.996094 22.527344 C 32.984375 22.605469 32.953125 22.679688 32.910156 22.753906 Z M 36.164062 15.398438 C 35.835938 15.457031 35.503906 15.613281 35.195312 15.734375 C 34.878906 15.859375 34.570312 15.988281 34.257812 16.128906 C 33.757812 16.355469 33.195312 16.589844 32.730469 16.921875 C 32.691406 16.496094 32.65625 16.066406 32.613281 15.640625 C 33.300781 15.417969 33.980469 15.179688 34.660156 14.9375 C 35.230469 14.734375 35.796875 14.5 36.371094 14.316406 C 36.359375 14.683594 36.347656 15.054688 36.335938 15.425781 C 36.285156 15.398438 36.226562 15.386719 36.164062 15.398438 Z M 36.335938 20.53125 C 36.289062 20.597656 36.230469 20.65625 36.160156 20.710938 C 36.285156 20.574219 36.378906 20.417969 36.414062 20.253906 C 36.425781 20.234375 36.4375 20.214844 36.445312 20.195312 C 36.449219 20.300781 36.414062 20.417969 36.335938 20.53125 Z M 36.335938 20.53125 " fill-opacity="1" fill-rule="nonzero"/></g><g clip-path="url(#id7)"><path fill="#000000" d="M 33.402344 21.003906 C 33.449219 20.953125 33.476562 20.882812 33.476562 20.800781 C 33.46875 18.949219 33.425781 17.101562 33.464844 15.25 C 33.46875 15.023438 33.238281 14.917969 33.066406 15.007812 C 32.40625 15.34375 31.695312 15.589844 31.011719 15.871094 C 30.367188 16.140625 29.730469 16.410156 29.09375 16.699219 C 29.003906 16.609375 28.828125 16.640625 28.824219 16.808594 C 28.8125 17.878906 28.867188 18.945312 28.941406 20.011719 C 29.003906 20.929688 29.050781 21.878906 29.1875 22.796875 C 28.523438 22.835938 27.773438 22.984375 27.328125 23.503906 C 26.84375 24.066406 27.089844 24.875 27.742188 25.140625 C 28.417969 25.417969 29.296875 24.988281 29.714844 24.414062 C 29.910156 24.140625 30.019531 23.789062 29.886719 23.457031 C 29.859375 23.390625 29.828125 23.332031 29.785156 23.277344 C 29.824219 23.222656 29.84375 23.160156 29.839844 23.097656 C 29.75 22.050781 29.558594 21.007812 29.445312 19.960938 C 29.398438 19.546875 29.359375 19.128906 29.320312 18.714844 C 29.585938 18.621094 29.835938 18.480469 30.089844 18.363281 C 30.410156 18.214844 30.730469 18.078125 31.058594 17.945312 C 31.359375 17.820312 31.667969 17.703125 31.976562 17.59375 C 32.269531 17.488281 32.582031 17.414062 32.871094 17.289062 C 32.847656 18.289062 32.835938 19.285156 32.863281 20.28125 C 32.308594 20.097656 31.6875 20.230469 31.285156 20.738281 C 30.757812 21.40625 30.875 22.421875 31.710938 22.730469 C 32.457031 23.011719 33.410156 22.496094 33.542969 21.652344 C 33.578125 21.390625 33.519531 21.175781 33.402344 21.003906 Z M 27.847656 24.257812 C 27.847656 24.253906 27.847656 24.246094 27.847656 24.238281 C 27.867188 24.382812 27.925781 24.519531 28.023438 24.621094 C 27.902344 24.582031 27.824219 24.476562 27.847656 24.257812 Z M 29.453125 24.058594 C 29.488281 23.984375 29.519531 23.910156 29.539062 23.835938 C 29.527344 23.914062 29.496094 23.988281 29.453125 24.058594 Z M 32.707031 16.707031 C 32.378906 16.761719 32.046875 16.921875 31.738281 17.042969 C 31.421875 17.164062 31.113281 17.296875 30.800781 17.4375 C 30.300781 17.660156 29.738281 17.898438 29.273438 18.230469 C 29.234375 17.800781 29.199219 17.375 29.15625 16.949219 C 29.84375 16.726562 30.523438 16.488281 31.203125 16.246094 C 31.773438 16.042969 32.339844 15.804688 32.914062 15.625 C 32.902344 15.992188 32.890625 16.363281 32.878906 16.734375 C 32.828125 16.707031 32.769531 16.695312 32.707031 16.707031 Z M 32.878906 21.839844 C 32.832031 21.90625 32.773438 21.964844 32.703125 22.015625 C 32.828125 21.882812 32.921875 21.726562 32.957031 21.5625 C 32.96875 21.542969 32.980469 21.523438 32.988281 21.503906 C 32.992188 21.609375 32.957031 21.726562 32.878906 21.839844 Z M 32.878906 21.839844 " fill-opacity="1" fill-rule="nonzero"/></g></svg>