<svg xmlns="http://www.w3.org/2000/svg" xmlns:xlink="http://www.w3.org/1999/xlink" width="500" zoomAndPan="magnify" viewBox="0 0 375 374.999991" height="500" preserveAspectRatio="xMidYMid meet" version="1.0"><defs><g/><clipPath id="id1"><path d="M 122.078125 113.652344 L 252.578125 113.652344 L 252.578125 222.402344 L 122.078125 222.402344 Z M 122.078125 113.652344 " clip-rule="nonzero"/></clipPath></defs><rect x="-37.5" width="450" fill="#ffffff" y="-37.499999" height="449.999989" fill-opacity="1"/><rect x="-37.5" width="450" fill="#ffffff" y="-37.499999" height="449.999989" fill-opacity="1"/><rect x="-37.5" width="450" fill="#fffcf2" y="-37.499999" height="449.999989" fill-opacity="1"/><g clip-path="url(#id1)"><path fill="#004aad" d="M 196.730469 143.707031 C 197.015625 147.109375 197.367188 150.507812 197.667969 153.910156 C 208.242188 154.53125 214.207031 163.671875 211.265625 173.875 C 210.960938 174.933594 210.5625 175.964844 210.082031 176.957031 C 212.335938 176.71875 214.625 176.367188 216.824219 175.832031 C 227.640625 173.1875 234.5 165.007812 239.636719 155.726562 C 240.730469 153.75 240.90625 153.894531 242.203125 155.472656 C 243.941406 153.496094 245.667969 151.394531 246.222656 150.253906 C 246.476562 149.734375 246.628906 149.339844 246.6875 148.980469 C 246.746094 148.621094 246.707031 148.300781 246.617188 147.984375 C 246.527344 147.671875 246.382812 147.367188 246.296875 147.101562 C 246.214844 146.835938 246.195312 146.609375 246.195312 146.246094 C 246.195312 145.886719 246.214844 145.382812 246.230469 145.042969 C 246.246094 144.699219 246.257812 144.515625 246.269531 144.351562 C 246.277344 144.191406 246.289062 144.050781 246.335938 143.976562 C 246.378906 143.902344 246.453125 143.886719 246.527344 143.886719 C 246.601562 143.886719 246.675781 143.902344 246.75 143.96875 C 246.824219 144.039062 246.902344 144.167969 246.949219 144.378906 C 246.996094 144.589844 247.011719 144.886719 247.050781 145.1875 C 247.09375 145.484375 247.164062 145.789062 247.246094 145.9375 C 247.328125 146.089844 247.425781 146.089844 247.582031 145.964844 C 247.734375 145.84375 247.949219 145.601562 248.210938 145.253906 C 248.472656 144.910156 248.785156 144.464844 249.132812 143.972656 C 249.480469 143.480469 249.867188 142.941406 250.128906 142.640625 C 250.394531 142.339844 250.535156 142.277344 250.65625 142.273438 C 250.773438 142.273438 250.863281 142.332031 250.953125 142.339844 C 251.046875 142.34375 251.136719 142.292969 251.214844 142.246094 C 251.292969 142.199219 251.359375 142.15625 251.449219 142.128906 C 251.535156 142.101562 251.648438 142.09375 251.730469 142.136719 C 251.804688 142.175781 251.851562 142.273438 251.894531 142.359375 C 251.933594 142.449219 251.972656 142.53125 252.023438 142.574219 C 252.074219 142.625 252.140625 142.632812 252.203125 142.679688 C 252.269531 142.730469 252.332031 142.820312 252.355469 142.933594 C 252.382812 143.046875 252.367188 143.179688 252.324219 143.316406 C 252.285156 143.449219 252.21875 143.582031 252.226562 143.683594 C 252.234375 143.789062 252.316406 143.859375 252.386719 143.945312 C 252.457031 144.027344 252.507812 144.125 252.53125 144.238281 C 252.550781 144.351562 252.542969 144.484375 252.46875 144.714844 C 252.390625 144.945312 252.246094 145.277344 252.117188 145.582031 C 251.984375 145.882812 251.867188 146.152344 251.746094 146.441406 C 251.625 146.734375 251.496094 147.039062 251.339844 147.417969 C 251.1875 147.796875 251.003906 148.246094 250.828125 148.570312 C 250.65625 148.890625 250.488281 149.085938 250.320312 149.265625 C 250.152344 149.441406 249.980469 149.601562 249.816406 149.789062 C 249.652344 149.976562 249.496094 150.1875 249.359375 150.445312 C 248.742188 151.605469 246.777344 155.324219 244.78125 158.609375 L 248.324219 162.925781 C 248.59375 163.253906 249.703125 164.429688 249.539062 164.894531 C 249.453125 165.140625 249.089844 165.292969 248.875 165.402344 C 246.9375 166.371094 245.21875 167.484375 243.492188 168.789062 C 225.832031 182.128906 227.003906 200.011719 232.488281 219.230469 C 232.511719 219.320312 232.695312 219.976562 232.929688 220.855469 L 202.5625 220.855469 C 210.277344 207.242188 211.640625 202.613281 213.242188 186.773438 C 213.4375 184.863281 213.035156 185.148438 211.035156 184.871094 C 208.894531 184.574219 206.757812 184.257812 204.632812 183.863281 C 203.488281 184.785156 202.246094 185.5625 200.929688 186.222656 C 200.3125 186.53125 199.679688 186.8125 199.039062 187.070312 C 198.949219 193.832031 198.625 201.691406 196.917969 208.238281 C 195.8125 212.460938 193.910156 216.679688 190.421875 219.453125 C 187.945312 221.421875 184.980469 222.398438 181.824219 222.3125 C 179.035156 222.242188 176.21875 221.351562 173.894531 219.808594 C 171.773438 218.402344 170.058594 216.4375 169.054688 214.089844 C 168.085938 211.820312 167.859375 209.351562 168.203125 206.914062 C 168.554688 204.425781 169.511719 201.917969 171.394531 200.183594 C 173.1875 198.53125 175.925781 197.507812 178.320312 197.289062 C 180.300781 197.113281 181.996094 197.511719 183.710938 198.5 C 185.121094 199.3125 186.457031 200.449219 187.351562 201.820312 C 188.261719 203.214844 188.613281 204.710938 188.542969 206.371094 C 188.472656 207.976562 188.058594 209.644531 187.644531 211.191406 C 187.621094 211.269531 187.527344 211.609375 187.488281 211.808594 C 187.566406 211.753906 187.664062 211.683594 187.695312 211.660156 C 188.804688 210.851562 189.585938 210.003906 190.28125 208.800781 C 191.671875 206.402344 192.390625 203.066406 192.84375 200.363281 C 193.488281 196.503906 193.796875 192.527344 193.941406 188.617188 C 193.402344 188.730469 192.859375 188.828125 192.3125 188.914062 C 184.21875 190.175781 175.71875 188.6875 170.753906 181.535156 C 169.796875 180.152344 169.144531 178.765625 168.53125 177.210938 C 168.507812 177.148438 168.410156 176.882812 168.34375 176.773438 C 168.230469 176.925781 167.996094 177.429688 167.953125 177.519531 C 166.941406 179.585938 166.105469 181.578125 165.40625 183.78125 C 161.71875 195.398438 162.222656 207.617188 163.726562 219.574219 C 163.78125 220 163.835938 220.429688 163.894531 220.855469 L 141.28125 220.855469 C 145.839844 203.609375 148.414062 184.699219 131.84375 172.734375 C 130.078125 171.457031 130.390625 171.25 131.328125 169.28125 L 132.789062 166.222656 C 130.246094 163.113281 126.210938 155.480469 125.277344 153.722656 C 125.140625 153.464844 124.984375 153.253906 124.820312 153.066406 C 124.65625 152.878906 124.484375 152.71875 124.316406 152.539062 C 124.148438 152.363281 123.980469 152.167969 123.808594 151.84375 C 123.632812 151.523438 123.449219 151.070312 123.292969 150.695312 C 123.140625 150.316406 123.011719 150.007812 122.890625 149.71875 C 122.769531 149.429688 122.652344 149.15625 122.519531 148.855469 C 122.390625 148.554688 122.246094 148.222656 122.171875 147.992188 C 122.09375 147.761719 122.085938 147.628906 122.105469 147.515625 C 122.128906 147.402344 122.179688 147.304688 122.25 147.21875 C 122.320312 147.136719 122.402344 147.0625 122.410156 146.960938 C 122.417969 146.855469 122.351562 146.722656 122.3125 146.589844 C 122.269531 146.457031 122.253906 146.320312 122.28125 146.207031 C 122.304688 146.097656 122.367188 146.007812 122.433594 145.957031 C 122.496094 145.90625 122.5625 145.898438 122.613281 145.851562 C 122.664062 145.804688 122.703125 145.722656 122.742188 145.632812 C 122.785156 145.546875 122.828125 145.453125 122.910156 145.410156 C 122.984375 145.367188 123.097656 145.378906 123.1875 145.40625 C 123.277344 145.429688 123.34375 145.476562 123.421875 145.523438 C 123.5 145.570312 123.589844 145.617188 123.679688 145.613281 C 123.773438 145.609375 123.867188 145.546875 123.984375 145.550781 C 124.101562 145.550781 124.242188 145.617188 124.507812 145.917969 C 124.769531 146.21875 125.15625 146.757812 125.503906 147.25 C 125.851562 147.738281 126.164062 148.1875 126.425781 148.53125 C 126.6875 148.875 126.902344 149.117188 127.054688 149.242188 C 127.210938 149.363281 127.304688 149.363281 127.390625 149.214844 C 127.472656 149.0625 127.542969 148.761719 127.585938 148.460938 C 127.628906 148.160156 127.640625 147.867188 127.6875 147.65625 C 127.734375 147.441406 127.8125 147.316406 127.886719 147.246094 C 127.964844 147.175781 128.035156 147.164062 128.109375 147.164062 C 128.183594 147.164062 128.257812 147.175781 128.300781 147.253906 C 128.34375 147.328125 128.359375 147.46875 128.367188 147.628906 C 128.378906 147.792969 128.390625 147.976562 128.40625 148.316406 C 128.421875 148.660156 128.441406 149.160156 128.441406 149.523438 C 128.441406 149.886719 128.421875 150.113281 128.339844 150.378906 C 128.253906 150.644531 128.109375 150.949219 128.019531 151.261719 C 127.925781 151.574219 127.890625 151.898438 127.949219 152.253906 C 128.007812 152.613281 128.160156 153.007812 128.414062 153.53125 C 129.257812 155.265625 132.8125 159.222656 135 161.585938 L 135.496094 160.546875 C 135.664062 160.195312 136.300781 158.59375 136.773438 158.582031 C 137.027344 158.574219 137.285156 158.902344 137.441406 159.074219 C 152.570312 175.902344 158.167969 172.3125 174.375 158.019531 C 179.699219 153.324219 185.121094 148.445312 190.003906 143.289062 C 190.398438 142.875 190.789062 142.453125 191.179688 142.03125 C 190.960938 139.335938 190.785156 136.621094 190.734375 133.914062 C 190.652344 129.269531 190.910156 123.332031 193.234375 119.175781 C 194.6875 116.570312 197.183594 114.34375 200.230469 113.941406 C 202.558594 113.636719 204.863281 114.535156 206.519531 116.167969 C 208.121094 117.742188 208.804688 119.734375 208.964844 121.941406 C 209.167969 124.652344 208.585938 127.445312 207.492188 129.921875 C 205.863281 133.609375 202.785156 137.101562 200.105469 140.0625 C 198.996094 141.289062 197.863281 142.503906 196.730469 143.707031 Z M 220.386719 157.285156 C 224.535156 157.285156 227.898438 160.648438 227.898438 164.800781 C 227.898438 168.953125 224.535156 172.320312 220.386719 172.320312 C 216.242188 172.320312 212.878906 168.953125 212.878906 164.800781 C 212.878906 160.648438 216.242188 157.285156 220.386719 157.285156 Z M 153.90625 153.5625 C 158.054688 153.5625 161.417969 156.929688 161.417969 161.082031 C 161.417969 165.230469 158.054688 168.597656 153.90625 168.597656 C 149.757812 168.597656 146.394531 165.230469 146.394531 161.082031 C 146.394531 156.929688 149.757812 153.5625 153.90625 153.5625 Z M 193.8125 174.382812 C 193.613281 170 193.3125 165.617188 192.949219 161.242188 C 192.714844 161.339844 192.484375 161.441406 192.253906 161.554688 C 190.539062 162.414062 189.160156 163.746094 188.761719 165.675781 C 188.292969 167.925781 189.210938 170.261719 190.710938 171.929688 C 191.582031 172.894531 192.6875 173.714844 193.8125 174.382812 Z M 194.03125 183.980469 C 194.03125 183.808594 194.03125 183.636719 194.03125 183.460938 C 194.03125 182.613281 194.023438 181.769531 194.011719 180.921875 C 192.082031 180.117188 190.164062 179.121094 188.488281 177.871094 C 186.152344 176.128906 184.347656 173.921875 183.378906 171.152344 C 182.523438 168.707031 182.433594 166.140625 183.054688 163.628906 C 183.742188 160.84375 185.21875 158.449219 187.546875 156.75 C 188.964844 155.710938 190.644531 154.964844 192.332031 154.492188 C 192.152344 152.628906 191.972656 150.765625 191.792969 148.902344 C 189.882812 150.898438 187.972656 152.898438 186.097656 154.925781 C 183.515625 157.722656 180.574219 160.90625 178.960938 164.390625 C 176.089844 170.589844 175.738281 181.796875 183.511719 184.417969 C 185.5625 185.113281 187.84375 185.0625 189.96875 184.8125 C 191.34375 184.648438 192.707031 184.390625 194.03125 183.980469 Z M 198.1875 160.394531 C 198.566406 165.78125 198.828125 171.1875 198.964844 176.582031 C 200.375 176.972656 201.785156 177.1875 203.246094 177.257812 C 204.703125 175.230469 205.746094 172.867188 206.007812 170.371094 C 206.25 168.007812 205.796875 165.222656 204.324219 163.304688 C 202.949219 161.511719 200.792969 160.648438 198.597656 160.429688 C 198.460938 160.417969 198.324219 160.40625 198.1875 160.394531 Z M 196.304688 135.875 C 197.355469 134.472656 198.351562 133.03125 199.285156 131.550781 C 200.558594 129.53125 201.976562 127.101562 202.640625 124.789062 C 202.949219 123.714844 203.1875 122.339844 202.648438 121.296875 C 202.28125 120.578125 201.5625 120.058594 200.753906 119.984375 C 199.832031 119.894531 199.101562 120.4375 198.550781 121.121094 C 197.390625 122.550781 196.960938 124.816406 196.71875 126.585938 C 196.3125 129.597656 196.253906 132.824219 196.304688 135.875 " fill-opacity="1" fill-rule="evenodd"/></g><g fill="#a2790f" fill-opacity="1"><g transform="translate(106.894816, 248.501039)"><g><path d="M 17.3125 -16.859375 L 18 -11.515625 L 15.921875 -11.375 L 14.8125 -14.71875 C 14.644531 -14.757812 14.441406 -14.785156 14.203125 -14.796875 C 13.960938 -14.804688 13.679688 -14.8125 13.359375 -14.8125 L 12.484375 -14.8125 C 12.328125 -14.8125 12.171875 -14.804688 12.015625 -14.796875 C 11.867188 -14.785156 11.773438 -14.769531 11.734375 -14.75 C 11.734375 -14.632812 11.722656 -14.273438 11.703125 -13.671875 C 11.691406 -13.066406 11.679688 -12.332031 11.671875 -11.46875 C 11.660156 -10.601562 11.65625 -9.707031 11.65625 -8.78125 L 11.65625 -6.875 C 11.65625 -5.90625 11.664062 -5.003906 11.6875 -4.171875 C 11.71875 -3.335938 11.742188 -2.664062 11.765625 -2.15625 L 14.296875 -1.671875 L 14.21875 0 L 4.328125 0 L 4.234375 -1.671875 L 6.765625 -2.15625 C 6.804688 -2.664062 6.832031 -3.335938 6.84375 -4.171875 C 6.863281 -5.003906 6.875 -5.90625 6.875 -6.875 L 6.875 -8.78125 C 6.875 -9.707031 6.867188 -10.601562 6.859375 -11.46875 C 6.847656 -12.332031 6.835938 -13.066406 6.828125 -13.671875 C 6.828125 -14.273438 6.816406 -14.632812 6.796875 -14.75 C 6.753906 -14.769531 6.65625 -14.785156 6.5 -14.796875 C 6.351562 -14.804688 6.207031 -14.8125 6.0625 -14.8125 L 5.140625 -14.8125 C 4.835938 -14.8125 4.546875 -14.804688 4.265625 -14.796875 C 3.984375 -14.785156 3.753906 -14.757812 3.578125 -14.71875 L 2.59375 -11.3125 L 0.515625 -11.484375 L 1.078125 -16.859375 C 1.265625 -16.859375 1.566406 -16.847656 1.984375 -16.828125 C 2.398438 -16.804688 2.851562 -16.785156 3.34375 -16.765625 C 3.84375 -16.753906 4.316406 -16.738281 4.765625 -16.71875 C 5.222656 -16.695312 5.597656 -16.6875 5.890625 -16.6875 L 12.53125 -16.6875 C 12.820312 -16.6875 13.191406 -16.695312 13.640625 -16.71875 C 14.097656 -16.738281 14.570312 -16.753906 15.0625 -16.765625 C 15.5625 -16.785156 16.015625 -16.804688 16.421875 -16.828125 C 16.828125 -16.847656 17.125 -16.859375 17.3125 -16.859375 Z M 17.3125 -16.859375 "/></g></g></g><g fill="#a2790f" fill-opacity="1"><g transform="translate(127.174041, 248.501039)"><g><path d="M 11.109375 0 L 11.03125 -1.625 L 12.796875 -2.15625 C 12.828125 -2.269531 12.859375 -2.5625 12.890625 -3.03125 C 12.921875 -3.507812 12.941406 -4.078125 12.953125 -4.734375 C 12.972656 -5.390625 12.984375 -6.03125 12.984375 -6.65625 L 12.984375 -10.0625 C 12.984375 -10.707031 12.972656 -11.359375 12.953125 -12.015625 C 12.941406 -12.679688 12.921875 -13.25 12.890625 -13.71875 C 12.859375 -14.195312 12.828125 -14.484375 12.796875 -14.578125 L 11.03125 -15.0625 L 11.109375 -16.6875 L 19.734375 -16.6875 L 19.8125 -15.0625 L 17.96875 -14.578125 C 17.945312 -14.484375 17.914062 -14.171875 17.875 -13.640625 C 17.84375 -13.109375 17.8125 -12.503906 17.78125 -11.828125 C 17.75 -11.160156 17.734375 -10.570312 17.734375 -10.0625 L 17.734375 -6.65625 C 17.734375 -6.15625 17.75 -5.570312 17.78125 -4.90625 C 17.8125 -4.25 17.84375 -3.65625 17.875 -3.125 C 17.914062 -2.59375 17.945312 -2.269531 17.96875 -2.15625 L 19.8125 -1.625 L 19.734375 0 Z M 0.9375 0 L 0.859375 -1.625 L 2.703125 -2.15625 C 2.734375 -2.238281 2.769531 -2.492188 2.8125 -2.921875 C 2.851562 -3.359375 2.878906 -3.910156 2.890625 -4.578125 C 2.910156 -5.242188 2.921875 -5.9375 2.921875 -6.65625 L 2.921875 -10.0625 C 2.921875 -10.800781 2.910156 -11.5 2.890625 -12.15625 C 2.878906 -12.820312 2.851562 -13.378906 2.8125 -13.828125 C 2.769531 -14.273438 2.734375 -14.523438 2.703125 -14.578125 L 0.859375 -15.0625 L 0.9375 -16.6875 L 9.546875 -16.6875 L 9.640625 -15.0625 L 7.875 -14.578125 C 7.832031 -14.484375 7.796875 -14.195312 7.765625 -13.71875 C 7.742188 -13.25 7.722656 -12.679688 7.703125 -12.015625 C 7.679688 -11.359375 7.671875 -10.707031 7.671875 -10.0625 L 7.671875 -6.65625 C 7.671875 -6.03125 7.679688 -5.390625 7.703125 -4.734375 C 7.722656 -4.078125 7.742188 -3.507812 7.765625 -3.03125 C 7.796875 -2.5625 7.832031 -2.269531 7.875 -2.15625 L 9.640625 -1.625 L 9.546875 0 Z M 6.796875 -7.25 L 6.796875 -9.71875 C 7.328125 -9.664062 7.847656 -9.628906 8.359375 -9.609375 C 8.867188 -9.585938 9.519531 -9.578125 10.3125 -9.578125 C 11.113281 -9.578125 11.769531 -9.585938 12.28125 -9.609375 C 12.789062 -9.628906 13.3125 -9.664062 13.84375 -9.71875 L 13.84375 -7.25 C 13.476562 -7.25 13.007812 -7.265625 12.4375 -7.296875 C 11.875 -7.335938 11.164062 -7.359375 10.3125 -7.359375 C 9.46875 -7.359375 8.769531 -7.335938 8.21875 -7.296875 C 7.664062 -7.265625 7.191406 -7.25 6.796875 -7.25 Z M 6.796875 -7.25 "/></g></g></g><g fill="#a2790f" fill-opacity="1"><g transform="translate(149.585154, 248.501039)"><g><path d="M 15.46875 0.203125 C 14.875 0.160156 14.117188 0.113281 13.203125 0.0625 C 12.285156 0.0195312 11.46875 0 10.75 0 L 0.9375 0 L 0.859375 -1.625 L 2.703125 -2.15625 C 2.734375 -2.238281 2.769531 -2.492188 2.8125 -2.921875 C 2.851562 -3.359375 2.878906 -3.910156 2.890625 -4.578125 C 2.910156 -5.242188 2.921875 -5.9375 2.921875 -6.65625 L 2.921875 -10.0625 C 2.921875 -10.800781 2.910156 -11.5 2.890625 -12.15625 C 2.878906 -12.820312 2.851562 -13.367188 2.8125 -13.796875 C 2.769531 -14.222656 2.734375 -14.46875 2.703125 -14.53125 L 0.859375 -15.0625 L 0.9375 -16.6875 L 9.40625 -16.6875 C 9.882812 -16.6875 10.457031 -16.691406 11.125 -16.703125 C 11.800781 -16.710938 12.460938 -16.726562 13.109375 -16.75 C 13.753906 -16.78125 14.273438 -16.816406 14.671875 -16.859375 L 15.546875 -12.34375 L 13.671875 -12.078125 L 12.53125 -14.703125 C 12.226562 -14.753906 11.972656 -14.789062 11.765625 -14.8125 C 11.554688 -14.832031 11.335938 -14.84375 11.109375 -14.84375 L 9.640625 -14.84375 C 9.273438 -14.84375 8.90625 -14.835938 8.53125 -14.828125 C 8.164062 -14.816406 7.898438 -14.789062 7.734375 -14.75 C 7.710938 -14.5625 7.695312 -14.320312 7.6875 -14.03125 C 7.675781 -13.75 7.664062 -13.367188 7.65625 -12.890625 C 7.644531 -12.421875 7.640625 -11.820312 7.640625 -11.09375 L 7.640625 -6.171875 C 7.640625 -5.410156 7.644531 -4.769531 7.65625 -4.25 C 7.664062 -3.726562 7.675781 -3.300781 7.6875 -2.96875 C 7.695312 -2.632812 7.710938 -2.363281 7.734375 -2.15625 C 8.109375 -2.101562 8.507812 -2.066406 8.9375 -2.046875 C 9.363281 -2.023438 9.925781 -2.015625 10.625 -2.015625 L 11.375 -2.015625 C 11.90625 -2.015625 12.28125 -2.015625 12.5 -2.015625 C 12.71875 -2.015625 12.878906 -2.023438 12.984375 -2.046875 C 13.085938 -2.066406 13.222656 -2.09375 13.390625 -2.125 L 15.015625 -5.0625 L 16.828125 -4.71875 Z M 11.5625 -5.578125 L 11.3125 -7.46875 C 11.175781 -7.46875 10.941406 -7.472656 10.609375 -7.484375 C 10.285156 -7.492188 9.921875 -7.5 9.515625 -7.5 L 8.421875 -7.5 C 8.035156 -7.5 7.703125 -7.488281 7.421875 -7.46875 C 7.140625 -7.457031 6.96875 -7.441406 6.90625 -7.421875 L 6.90625 -9.71875 C 6.96875 -9.695312 7.140625 -9.671875 7.421875 -9.640625 C 7.703125 -9.617188 8.035156 -9.609375 8.421875 -9.609375 L 9.515625 -9.609375 C 9.921875 -9.609375 10.285156 -9.613281 10.609375 -9.625 C 10.941406 -9.632812 11.175781 -9.640625 11.3125 -9.640625 L 11.5625 -11.484375 L 13.390625 -11.484375 L 13.390625 -5.578125 Z M 11.5625 -5.578125 "/></g></g></g><g fill="#a2790f" fill-opacity="1"><g transform="translate(168.386267, 248.501039)"><g/></g></g><g fill="#a2790f" fill-opacity="1"><g transform="translate(175.788886, 248.501039)"><g><path d="M 2.734375 -2.15625 C 2.785156 -2.25 2.828125 -2.734375 2.859375 -3.609375 C 2.898438 -4.484375 2.921875 -5.5 2.921875 -6.65625 L 2.921875 -10.0625 C 2.921875 -11.175781 2.898438 -12.171875 2.859375 -13.046875 C 2.828125 -13.921875 2.785156 -14.40625 2.734375 -14.5 L 0.875 -15.09375 L 0.96875 -16.6875 L 9.890625 -16.6875 C 11.972656 -16.6875 13.507812 -16.359375 14.5 -15.703125 C 15.5 -15.046875 16 -14.035156 16 -12.671875 C 16 -11.628906 15.515625 -10.765625 14.546875 -10.078125 C 13.585938 -9.390625 12.3125 -8.992188 10.71875 -8.890625 L 11.203125 -9.15625 C 13.003906 -9.0625 14.394531 -8.644531 15.375 -7.90625 C 16.363281 -7.164062 16.859375 -6.179688 16.859375 -4.953125 C 16.859375 -3.359375 16.195312 -2.132812 14.875 -1.28125 C 13.5625 -0.425781 11.679688 0 9.234375 0 L 0.96875 0 L 0.875 -1.625 Z M 7.640625 -5.03125 C 7.640625 -4.332031 7.648438 -3.734375 7.671875 -3.234375 C 7.691406 -2.742188 7.710938 -2.375 7.734375 -2.125 C 7.898438 -2.050781 8.117188 -1.988281 8.390625 -1.9375 C 8.671875 -1.894531 8.953125 -1.875 9.234375 -1.875 C 10.015625 -1.875 10.628906 -2.109375 11.078125 -2.578125 C 11.535156 -3.054688 11.765625 -3.6875 11.765625 -4.46875 C 11.765625 -5.507812 11.507812 -6.265625 11 -6.734375 C 10.488281 -7.210938 9.632812 -7.453125 8.4375 -7.453125 C 8.289062 -7.453125 8.113281 -7.445312 7.90625 -7.4375 C 7.695312 -7.425781 7.457031 -7.398438 7.1875 -7.359375 L 7.1875 -9.546875 C 7.476562 -9.523438 7.703125 -9.507812 7.859375 -9.5 C 8.023438 -9.5 8.171875 -9.5 8.296875 -9.5 C 9.210938 -9.5 9.878906 -9.734375 10.296875 -10.203125 C 10.710938 -10.679688 10.921875 -11.351562 10.921875 -12.21875 C 10.921875 -13.019531 10.710938 -13.664062 10.296875 -14.15625 C 9.878906 -14.644531 9.1875 -14.890625 8.21875 -14.890625 L 7.703125 -14.890625 C 7.679688 -14.703125 7.664062 -14.3125 7.65625 -13.71875 C 7.644531 -13.125 7.640625 -12.40625 7.640625 -11.5625 Z M 7.640625 -5.03125 "/></g></g></g><g fill="#a2790f" fill-opacity="1"><g transform="translate(195.58488, 248.501039)"><g><path d="M 1.109375 0 L 1.015625 -1.625 L 2.875 -2.125 C 2.875 -2.238281 2.878906 -2.472656 2.890625 -2.828125 C 2.898438 -3.179688 2.90625 -3.59375 2.90625 -4.0625 C 2.914062 -4.539062 2.925781 -5.007812 2.9375 -5.46875 C 2.945312 -5.9375 2.953125 -6.332031 2.953125 -6.65625 L 2.953125 -10.0625 C 2.953125 -10.800781 2.941406 -11.5 2.921875 -12.15625 C 2.910156 -12.8125 2.882812 -13.351562 2.84375 -13.78125 C 2.800781 -14.21875 2.765625 -14.46875 2.734375 -14.53125 L 0.875 -15.0625 L 0.96875 -16.6875 L 9.015625 -16.6875 C 11.441406 -16.6875 13.210938 -16.332031 14.328125 -15.625 C 15.441406 -14.925781 16 -13.789062 16 -12.21875 C 16 -11.289062 15.703125 -10.460938 15.109375 -9.734375 C 14.515625 -9.003906 13.691406 -8.429688 12.640625 -8.015625 C 11.585938 -7.597656 10.378906 -7.390625 9.015625 -7.390625 L 6.9375 -7.390625 L 6.9375 -9.265625 L 8.21875 -9.265625 C 9.03125 -9.265625 9.703125 -9.550781 10.234375 -10.125 C 10.765625 -10.707031 11.03125 -11.453125 11.03125 -12.359375 C 11.03125 -13.179688 10.8125 -13.804688 10.375 -14.234375 C 9.9375 -14.671875 9.300781 -14.890625 8.46875 -14.890625 L 7.734375 -14.890625 C 7.734375 -14.816406 7.726562 -14.597656 7.71875 -14.234375 C 7.707031 -13.878906 7.695312 -13.445312 7.6875 -12.9375 C 7.675781 -12.4375 7.671875 -11.929688 7.671875 -11.421875 C 7.671875 -10.910156 7.671875 -10.476562 7.671875 -10.125 L 7.671875 -6.65625 C 7.671875 -6.351562 7.675781 -5.90625 7.6875 -5.3125 C 7.695312 -4.726562 7.707031 -4.132812 7.71875 -3.53125 C 7.726562 -2.9375 7.734375 -2.46875 7.734375 -2.125 L 9.265625 -1.625 L 9.1875 0 Z M 16.796875 0.375 C 15.609375 0.375 14.539062 0.195312 13.59375 -0.15625 C 12.644531 -0.519531 11.832031 -1.050781 11.15625 -1.75 C 10.488281 -2.457031 9.941406 -3.320312 9.515625 -4.34375 L 8.125 -7.84375 L 11.90625 -8.734375 L 15.5 -3.890625 C 15.800781 -3.515625 16.128906 -3.160156 16.484375 -2.828125 C 16.847656 -2.492188 17.238281 -2.195312 17.65625 -1.9375 C 18.070312 -1.6875 18.515625 -1.488281 18.984375 -1.34375 L 18.953125 0.171875 C 18.578125 0.242188 18.210938 0.296875 17.859375 0.328125 C 17.515625 0.359375 17.160156 0.375 16.796875 0.375 Z M 16.796875 0.375 "/></g></g></g><g fill="#a2790f" fill-opacity="1"><g transform="translate(216.290485, 248.501039)"><g><path d="M 0.9375 0 L 0.859375 -1.625 L 2.703125 -2.15625 C 2.734375 -2.238281 2.769531 -2.492188 2.8125 -2.921875 C 2.851562 -3.359375 2.878906 -3.910156 2.890625 -4.578125 C 2.910156 -5.242188 2.921875 -5.9375 2.921875 -6.65625 L 2.921875 -10.0625 C 2.921875 -10.800781 2.910156 -11.5 2.890625 -12.15625 C 2.878906 -12.820312 2.851562 -13.378906 2.8125 -13.828125 C 2.769531 -14.273438 2.734375 -14.523438 2.703125 -14.578125 L 0.859375 -15.0625 L 0.9375 -16.6875 L 9.640625 -16.6875 L 9.71875 -15.0625 L 7.875 -14.578125 C 7.832031 -14.484375 7.796875 -14.195312 7.765625 -13.71875 C 7.742188 -13.25 7.722656 -12.679688 7.703125 -12.015625 C 7.679688 -11.359375 7.671875 -10.707031 7.671875 -10.0625 L 7.671875 -6.65625 C 7.671875 -6.03125 7.679688 -5.390625 7.703125 -4.734375 C 7.722656 -4.078125 7.742188 -3.507812 7.765625 -3.03125 C 7.796875 -2.5625 7.832031 -2.269531 7.875 -2.15625 L 9.71875 -1.625 L 9.640625 0 Z M 0.9375 0 "/></g></g></g><g fill="#a2790f" fill-opacity="1"><g transform="translate(228.639089, 248.501039)"><g><path d="M 1 -16.6875 L 9.4375 -16.6875 C 12.539062 -16.6875 14.957031 -15.96875 16.6875 -14.53125 C 18.425781 -13.101562 19.296875 -11.117188 19.296875 -8.578125 C 19.296875 -6.929688 18.882812 -5.457031 18.0625 -4.15625 C 17.238281 -2.863281 16.101562 -1.847656 14.65625 -1.109375 C 13.207031 -0.367188 11.546875 0 9.671875 0 L 1 0 L 0.90625 -1.625 L 2.75 -2.15625 C 2.8125 -2.238281 2.859375 -2.695312 2.890625 -3.53125 C 2.929688 -4.375 2.953125 -5.414062 2.953125 -6.65625 L 2.953125 -10.0625 C 2.953125 -11.257812 2.929688 -12.289062 2.890625 -13.15625 C 2.859375 -14.03125 2.8125 -14.503906 2.75 -14.578125 L 0.90625 -15.0625 Z M 7.765625 -14.5625 C 7.765625 -14.457031 7.757812 -14.195312 7.75 -13.78125 C 7.738281 -13.363281 7.726562 -12.835938 7.71875 -12.203125 C 7.707031 -11.566406 7.703125 -10.851562 7.703125 -10.0625 L 7.703125 -6.65625 C 7.703125 -6.195312 7.707031 -5.6875 7.71875 -5.125 C 7.726562 -4.570312 7.742188 -4.046875 7.765625 -3.546875 C 7.796875 -3.054688 7.820312 -2.679688 7.84375 -2.421875 C 8.144531 -2.335938 8.5 -2.269531 8.90625 -2.21875 C 9.3125 -2.175781 9.6875 -2.15625 10.03125 -2.15625 C 11.394531 -2.15625 12.414062 -2.578125 13.09375 -3.421875 C 13.78125 -4.265625 14.125 -5.671875 14.125 -7.640625 C 14.125 -9.046875 13.972656 -10.203125 13.671875 -11.109375 C 13.367188 -12.023438 12.96875 -12.738281 12.46875 -13.25 C 11.976562 -13.757812 11.445312 -14.125 10.875 -14.34375 C 10.3125 -14.5625 9.765625 -14.671875 9.234375 -14.671875 C 9.003906 -14.671875 8.757812 -14.660156 8.5 -14.640625 C 8.238281 -14.617188 7.992188 -14.59375 7.765625 -14.5625 Z M 7.765625 -14.5625 "/></g></g></g><g fill="#a2790f" fill-opacity="1"><g transform="translate(251.021779, 248.501039)"><g><path d="M 15.46875 0.203125 C 14.875 0.160156 14.117188 0.113281 13.203125 0.0625 C 12.285156 0.0195312 11.46875 0 10.75 0 L 0.9375 0 L 0.859375 -1.625 L 2.703125 -2.15625 C 2.734375 -2.238281 2.769531 -2.492188 2.8125 -2.921875 C 2.851562 -3.359375 2.878906 -3.910156 2.890625 -4.578125 C 2.910156 -5.242188 2.921875 -5.9375 2.921875 -6.65625 L 2.921875 -10.0625 C 2.921875 -10.800781 2.910156 -11.5 2.890625 -12.15625 C 2.878906 -12.820312 2.851562 -13.367188 2.8125 -13.796875 C 2.769531 -14.222656 2.734375 -14.46875 2.703125 -14.53125 L 0.859375 -15.0625 L 0.9375 -16.6875 L 9.40625 -16.6875 C 9.882812 -16.6875 10.457031 -16.691406 11.125 -16.703125 C 11.800781 -16.710938 12.460938 -16.726562 13.109375 -16.75 C 13.753906 -16.78125 14.273438 -16.816406 14.671875 -16.859375 L 15.546875 -12.34375 L 13.671875 -12.078125 L 12.53125 -14.703125 C 12.226562 -14.753906 11.972656 -14.789062 11.765625 -14.8125 C 11.554688 -14.832031 11.335938 -14.84375 11.109375 -14.84375 L 9.640625 -14.84375 C 9.273438 -14.84375 8.90625 -14.835938 8.53125 -14.828125 C 8.164062 -14.816406 7.898438 -14.789062 7.734375 -14.75 C 7.710938 -14.5625 7.695312 -14.320312 7.6875 -14.03125 C 7.675781 -13.75 7.664062 -13.367188 7.65625 -12.890625 C 7.644531 -12.421875 7.640625 -11.820312 7.640625 -11.09375 L 7.640625 -6.171875 C 7.640625 -5.410156 7.644531 -4.769531 7.65625 -4.25 C 7.664062 -3.726562 7.675781 -3.300781 7.6875 -2.96875 C 7.695312 -2.632812 7.710938 -2.363281 7.734375 -2.15625 C 8.109375 -2.101562 8.507812 -2.066406 8.9375 -2.046875 C 9.363281 -2.023438 9.925781 -2.015625 10.625 -2.015625 L 11.375 -2.015625 C 11.90625 -2.015625 12.28125 -2.015625 12.5 -2.015625 C 12.71875 -2.015625 12.878906 -2.023438 12.984375 -2.046875 C 13.085938 -2.066406 13.222656 -2.09375 13.390625 -2.125 L 15.015625 -5.0625 L 16.828125 -4.71875 Z M 11.5625 -5.578125 L 11.3125 -7.46875 C 11.175781 -7.46875 10.941406 -7.472656 10.609375 -7.484375 C 10.285156 -7.492188 9.921875 -7.5 9.515625 -7.5 L 8.421875 -7.5 C 8.035156 -7.5 7.703125 -7.488281 7.421875 -7.46875 C 7.140625 -7.457031 6.96875 -7.441406 6.90625 -7.421875 L 6.90625 -9.71875 C 6.96875 -9.695312 7.140625 -9.671875 7.421875 -9.640625 C 7.703125 -9.617188 8.035156 -9.609375 8.421875 -9.609375 L 9.515625 -9.609375 C 9.921875 -9.609375 10.285156 -9.613281 10.609375 -9.625 C 10.941406 -9.632812 11.175781 -9.640625 11.3125 -9.640625 L 11.5625 -11.484375 L 13.390625 -11.484375 L 13.390625 -5.578125 Z M 11.5625 -5.578125 "/></g></g></g></svg>